<svg height="472pt" viewBox="-92 0 472 472.00019" width="472pt" xmlns="http://www.w3.org/2000/svg"><path d="m248 184h-176.183594l-8.9375 48.238281c-2.324218 34.945313 14.347656 68.433594 43.632813 87.640625 78.417969-1.269531 141.488281-61.480468 141.488281-135.878906zm0 0" fill="#be1e2d"/><path d="m257.121094 232.238281-8.898438-48.238281h-.222656c0 74.398438-63.070312 134.609375-141.488281 135.878906 20.4375 13.589844 45.292969 18.871094 69.488281 14.761719 49.355469-8.183594 84.449219-52.480469 81.121094-102.402344zm0 0" fill="#ab1b28"/><path d="m248.222656 184-16.222656-88h-28l-28 88zm0 0" fill="#e6e7e8"/><path d="m204 96h-116l-15.917969 86.558594-.265625 1.441406h104.183594zm0 0" fill="#e6e7e8"/><path d="m0 96h88l-62.238281-62.238281c-16.527344 16.488281-25.8007815 38.890625-25.761719 62.238281zm0 0" fill="#ff9811"/><path d="m25.761719 33.761719 62.238281 62.238281v-88c-23.347656-.039062-45.75 9.234375-62.238281 25.761719zm0 0" fill="#ffcd00"/><path d="m25.761719 158.238281 62.238281-62.238281v88c-23.347656.039062-45.75-9.230469-62.238281-25.761719zm0 0" fill="#ffb655"/><path d="m88 8v88l62.238281-62.238281c-16.488281-16.527344-38.890625-25.800781-62.238281-25.761719zm0 0" fill="#ff9811"/><path d="m88 184v-88l62.238281 62.238281c-16.488281 16.53125-38.890625 25.800781-62.238281 25.761719zm0 0" fill="#ffc477"/><path d="m150.238281 33.761719-62.238281 62.238281h88c.039062-23.347656-9.230469-45.75-25.761719-62.238281zm0 0" fill="#ffcd00"/><path d="m72.082031 182.558594 15.917969-86.558594-62.238281 62.238281c12.605469 12.628907 28.765625 21.113281 46.320312 24.320313zm0 0" fill="#ff9811"/><path d="m25.761719 158.238281 62.238281-62.238281h-88c-.0390625 23.347656 9.234375 45.75 25.761719 62.238281zm0 0" fill="#ffcd00"/><path d="m150.238281 158.238281-62.238281-62.238281h88c.039062 23.347656-9.230469 45.75-25.761719 62.238281zm0 0" fill="#ffe477"/><path d="m144 334.640625v113.359375c-21.320312.257812-42.1875 6.164062-60.480469 17.121094l-11.519531 6.878906h176l-11.519531-6.878906c-18.289063-10.957032-39.160157-16.863282-60.480469-17.121094v-113.359375c-10.589844 1.8125-21.410156 1.8125-32 0zm0 0" fill="#a7a9ac"/><path d="m104.566406 253.601562c-1.160156-4.414062-1.796875-8.949218-1.894531-13.511718-.183594-4.378906-3.785156-7.832032-8.167969-7.832032-2.121094.042969-4.140625.929688-5.609375 2.460938-1.46875 1.535156-2.269531 3.589844-2.222656 5.714844.117187 5.828125.921875 11.621094 2.398437 17.261718.929688 3.507813 4.101563 5.949219 7.730469 5.953126.691407-.003907 1.382813-.089844 2.054688-.265626 2.058593-.535156 3.816406-1.871093 4.886719-3.707031 1.070312-1.832031 1.367187-4.019531.824218-6.074219zm0 0" fill="#f1f2f2"/><path d="m160 296c-3.132812 0-6.261719-.265625-9.351562-.800781-13.65625-2.191407-26.050782-9.257813-34.894532-19.886719-1.796875-2.289062-4.691406-3.421875-7.5625-2.960938-2.875.460938-5.269531 2.445313-6.257812 5.179688-.988282 2.734375-.414063 5.789062 1.5 7.980469 14.035156 16.726562 34.730468 26.414062 56.566406 26.488281 4.417969 0 8-3.582031 8-8s-3.582031-8-8-8zm0 0" fill="#f1f2f2"/><path d="m280 0h-36.304688c-10.472656-.0429688-19.75 6.738281-22.894531 16.726562l-50.738281 167.273438h16.722656l49.296875-162.398438c1.042969-3.328124 4.125-5.59375 7.613281-5.601562h36.304688c4.417969 0 8-3.582031 8-8s-3.582031-8-8-8zm0 0" fill="#ff9811"/></svg>