<?xml version="1.0" standalone="no"?>
<!DOCTYPE svg PUBLIC "-//W3C//DTD SVG 20010904//EN"
 "http://www.w3.org/TR/2001/REC-SVG-20010904/DTD/svg10.dtd">
<svg version="1.0" xmlns="http://www.w3.org/2000/svg"
 width="615.000000pt" height="640.000000pt" viewBox="0 0 615.000000 640.000000"
 preserveAspectRatio="xMidYMid meet">
<metadata>
Created by potrace 1.15, written by Peter Selinger 2001-2017
</metadata>
<g transform="translate(0.000000,640.000000) scale(0.100000,-0.100000)"
fill="#000000" stroke="none">
<path d="M1940 6397 c-3 -3 -30 -8 -60 -11 -54 -6 -105 -13 -145 -21 -11 -2
-35 -6 -54 -9 -19 -3 -59 -13 -90 -22 -31 -10 -59 -18 -63 -20 -5 -1 -9 -2
-10 -3 -2 -2 -13 -4 -24 -6 -12 -3 -34 -9 -50 -15 -16 -6 -29 -10 -30 -8 0 2
-8 -3 -17 -11 -10 -7 -17 -10 -17 -6 0 4 -11 0 -25 -9 -14 -9 -25 -14 -25 -10
0 3 -11 -1 -25 -10 -14 -9 -25 -14 -25 -11 0 8 -184 -86 -191 -97 -3 -5 -9 -9
-13 -8 -11 2 -86 -43 -86 -52 0 -5 -5 -6 -10 -3 -6 3 -13 -1 -16 -9 -3 -9 -10
-14 -14 -11 -5 3 -13 -2 -18 -11 -5 -9 -13 -16 -18 -16 -15 1 -179 -125 -212
-162 -16 -19 -32 -33 -34 -30 -3 2 -13 -6 -24 -18 -19 -22 -19 -23 1 -9 11 8
8 3 -7 -12 -15 -15 -32 -27 -37 -27 -5 0 -13 -5 -17 -12 -5 -7 -2 -8 7 -3 8 5
-7 -11 -33 -34 -52 -46 -210 -250 -202 -262 2 -4 -3 -10 -12 -13 -8 -3 -12
-10 -9 -16 3 -5 2 -10 -4 -10 -10 0 -57 -81 -52 -89 2 -2 -2 -7 -7 -10 -15 -9
-92 -168 -85 -175 4 -3 2 -6 -4 -6 -9 0 -18 -21 -28 -60 0 -3 -6 -15 -13 -27
-6 -12 -13 -30 -15 -40 -2 -10 -7 -26 -11 -35 -4 -9 -9 -25 -11 -35 -2 -10 -4
-19 -5 -20 -2 -2 -3 -6 -5 -10 -1 -5 -5 -15 -8 -23 -4 -8 -8 -24 -10 -35 -2
-11 -7 -27 -10 -35 -3 -8 -8 -29 -11 -47 -2 -17 -6 -36 -9 -40 -3 -5 -8 -29
-11 -53 -3 -25 -8 -56 -11 -70 -14 -70 -20 -163 -20 -335 0 -168 4 -231 19
-325 2 -14 7 -47 11 -75 4 -27 9 -53 11 -57 3 -4 7 -17 10 -28 2 -11 6 -30 10
-42 3 -13 7 -34 10 -48 2 -14 7 -32 11 -40 3 -8 7 -18 8 -22 2 -5 4 -10 5 -13
1 -3 4 -9 5 -15 1 -5 4 -12 5 -15 1 -3 4 -9 5 -15 1 -5 3 -11 5 -12 1 -2 3
-12 5 -23 6 -32 58 -149 69 -157 6 -4 8 -8 3 -8 -9 0 52 -122 65 -131 5 -3 9
-9 9 -13 -3 -17 129 -229 153 -244 6 -4 18 -20 26 -36 21 -40 217 -243 308
-319 85 -70 242 -182 242 -172 0 3 10 -3 22 -14 11 -11 25 -18 30 -15 4 3 8 1
8 -4 0 -9 50 -37 63 -34 4 1 7 -3 7 -10 0 -6 3 -9 6 -5 4 3 13 -1 21 -9 8 -8
19 -12 24 -9 5 4 9 1 9 -5 0 -6 5 -8 10 -5 5 3 10 1 10 -4 0 -6 3 -10 7 -9 5
1 26 -7 48 -19 39 -20 222 -87 268 -98 12 -3 54 -14 94 -24 40 -11 94 -23 120
-26 26 -4 59 -9 73 -11 116 -20 411 -26 535 -11 103 12 139 17 165 23 14 3 36
8 50 10 22 4 55 11 85 20 6 2 19 5 30 7 64 15 81 21 93 30 6 5 12 6 12 2 0 -4
7 -2 15 5 8 7 15 10 15 7 0 -7 121 37 154 56 12 6 24 10 29 9 4 -1 7 3 7 10 0
6 3 9 6 5 7 -7 146 60 155 75 3 5 8 8 10 7 7 -5 89 44 89 53 0 5 4 7 9 4 5 -3
20 5 34 18 14 13 28 22 31 19 2 -3 9 4 15 16 7 13 8 22 1 26 -5 3 -10 11 -10
16 0 6 4 8 9 5 4 -3 92 77 194 177 l186 183 23 -20 c15 -14 18 -15 9 -3 -12
15 -12 17 1 12 10 -4 32 17 70 67 63 84 181 277 181 295 0 7 3 13 7 13 4 0 22
35 40 78 55 129 79 192 73 192 -3 0 0 7 7 15 7 8 9 15 5 15 -4 0 -2 7 5 15 7
8 9 15 6 15 -4 0 -2 8 3 18 6 11 12 30 15 43 5 23 9 42 21 89 67 268 78 568
30 850 -8 47 -11 62 -31 165 -4 17 -9 35 -12 40 -4 6 -8 17 -10 25 -5 25 -10
45 -12 45 -1 0 -3 10 -5 21 -3 12 -10 34 -16 50 -7 16 -14 37 -16 47 -6 33
-115 267 -124 267 -5 0 -8 4 -7 8 5 14 -88 165 -165 268 -75 101 -266 309
-275 300 -2 -3 -13 5 -24 19 -37 47 -338 258 -338 237 0 -4 -4 -2 -8 4 -9 14
-74 49 -84 46 -5 -1 -8 3 -8 9 0 5 -4 8 -9 5 -5 -4 -11 -3 -13 2 -8 19 -348
152 -348 135 0 -3 -6 -1 -12 5 -7 5 -26 12 -43 15 -16 3 -37 8 -45 11 -8 3
-31 7 -50 10 -19 3 -46 8 -60 11 -25 6 -48 10 -125 21 -52 8 -448 17 -455 11z
m500 -73 c412 -62 820 -260 1107 -537 29 -28 50 -54 48 -58 -3 -4 3 -13 13
-20 16 -13 16 -12 2 6 -8 11 3 4 24 -15 51 -47 206 -240 193 -240 -2 0 -23 25
-46 55 -77 101 -125 150 -145 147 -10 -2 -23 1 -29 7 -6 6 -19 11 -29 11 -10
0 -73 35 -140 79 -238 152 -359 214 -551 283 -107 38 -332 89 -378 87 -13 -1
-62 4 -109 10 -98 15 -426 15 -485 1 -35 -8 -33 -9 22 -4 85 7 326 6 393 -1
263 -29 518 -112 734 -239 429 -253 742 -655 869 -1116 55 -200 62 -257 62
-520 -1 -215 -4 -258 -23 -350 -82 -382 -241 -684 -498 -946 -49 -50 -62 -61
-29 -24 33 36 18 23 -34 -29 -51 -52 -100 -96 -108 -97 -9 -2 -21 -8 -27 -15
-8 -9 -8 -10 3 -4 10 5 12 4 7 -4 -4 -6 -11 -9 -15 -6 -5 2 -17 -3 -27 -11
-10 -9 -13 -12 -5 -8 9 5 12 3 7 -5 -4 -6 -11 -9 -15 -6 -5 2 -17 -3 -27 -11
-10 -9 -13 -12 -5 -8 9 5 12 3 7 -5 -4 -6 -11 -9 -17 -6 -12 8 -81 -40 -71
-50 4 -5 2 -5 -4 -2 -7 4 -47 -13 -90 -37 -94 -53 -273 -127 -366 -152 -37
-10 -65 -20 -63 -23 1 -3 -16 -7 -38 -8 -23 -1 -43 -6 -45 -11 -1 -5 -14 -7
-27 -4 -15 3 -25 0 -25 -8 0 -8 -10 -9 -30 -5 -19 4 -30 3 -30 -5 0 -6 -17
-11 -37 -11 -21 0 -81 -3 -133 -8 -289 -23 -641 46 -916 180 -583 284 -968
831 -1045 1483 -13 114 -7 409 11 499 6 32 10 66 8 75 -2 9 -12 -35 -23 -98
-25 -158 -26 -580 -1 -720 39 -221 104 -404 237 -673 43 -87 79 -165 79 -173
0 -8 6 -23 12 -34 10 -15 10 -22 0 -32 -10 -10 10 -35 95 -122 82 -83 92 -95
40 -50 -89 77 -199 203 -191 216 4 7 2 8 -4 4 -24 -15 -193 240 -280 422 -332
699 -243 1532 231 2157 344 452 873 745 1452 805 119 12 374 4 505 -16z"/>
<path d="M3642 2669 c-161 -155 -292 -287 -290 -295 2 -7 282 -322 623 -700
341 -378 813 -901 1049 -1163 235 -262 436 -484 446 -495 16 -16 23 -17 51 -7
108 37 369 257 501 420 67 83 128 174 128 190 0 6 -325 354 -722 774 -398 420
-892 942 -1098 1160 -206 218 -379 397 -385 397 -5 0 -142 -127 -303 -281z
m1325 -836 c561 -593 1048 -1109 1083 -1146 l64 -69 -17 -31 c-53 -98 -246
-313 -357 -396 -25 -19 -38 -27 -29 -17 14 15 10 22 -46 79 -33 34 -304 321
-600 637 -658 700 -1102 1172 -1337 1423 -98 104 -178 193 -178 199 0 7 -12 1
-27 -12 -16 -12 71 75 192 194 120 119 222 216 226 216 3 0 465 -485 1026
-1077z"/>
</g>
</svg>
